PathFileType	4	(X/Y/Z)	/Users/niels/Desktop/University/Third Semester/Perception and Action/Exam/Gymnastics Motion Tracking/Code for Gym Tracking/Analyzed Data/Webcam_Backflip/id6_1_baseline_Sports2D/id6_1_baseline_Sports2D_px_person00.trc
DataRate	CameraRate	NumFrames	NumMarkers	Units	OrigDataRate	OrigDataStartFrame	OrigNumFrames
29.702970297029704	29.702970297029704	12	22	m	29.702970297029704	75	101
Frame#	Time	Hip			RHip			RKnee			RAnkle			RBigToe			RSmallToe			RHeel			LHip			LKnee			LAnkle			LBigToe			LSmallToe			LHeel			Neck			Head			Nose			RShoulder			RElbow			RWrist			LShoulder			LElbow			LWrist		
		X1	Y1	Z1	X2	Y2	Z2	X3	Y3	Z3	X4	Y4	Z4	X5	Y5	Z5	X6	Y6	Z6	X7	Y7	Z7	X8	Y8	Z8	X9	Y9	Z9	X10	Y10	Z10	X11	Y11	Z11	X12	Y12	Z12	X13	Y13	Z13	X14	Y14	Z14	X15	Y15	Z15	X16	Y16	Z16	X17	Y17	Z17	X18	Y18	Z18	X19	Y19	Z19	X20	Y20	Z20	X21	Y21	Z21	X22	Y22	Z22
75	2.525	0.9636367478250522	-0.7056963484937006	0.0	0.9211621406519472	-0.7108885384024924	0.0	0.9175650127538607	-0.9826939575751437	0.0	0.8914714241274865	-1.1070210848723618	0.0	0.9725060851105255	-1.08757106586614	0.0	0.9553599800020265	-1.1504921622446649	0.0	0.872915477743745	-1.1021497451076099	0.0	1.0035351323085573	-0.7259800967135563	0.0	0.9712749125442677	-0.9902762083951966	0.0	0.9249799845333756	-1.100751733176657	0.0	1.0149232140641216	-1.1030144353875106	0.0	0.9965499341557226	-1.1668516764759065	0.0	0.9083322460078376	-1.0769151360588909	0.0	0.9902789764709042	-0.3945012528229651	0.0	1.0067416096967896	-0.265937442915682	0.0	1.0065567697857778	-0.322210916263132	0.0	0.9004079259700942	-0.4134943033822641	0.0	0.7906987864627165	-0.31282781423852907	0.0	0.7048419248073657	-0.1779108422533114	0.0	1.0613395060619168	-0.47505989846610763	0.0	1.0971860727237954	-0.6260471718750223	0.0	1.076628300298095	-0.549669318216723	0.0
76	2.5586666666666664	0.9653989342862771	-0.7053946654228996	0.0	0.9215032658871524	-0.7104994559551722	0.0	0.9176316506490321	-0.9803540479743339	0.0	0.8915768449555425	-1.1004015495495967	0.0	0.9725714753986233	-1.087539298038481	0.0	0.9555916649683558	-1.1509293465163193	0.0	0.8726164876830044	-1.1009812677003903	0.0	1.0051852646703625	-0.72594123317415	0.0	0.9733400541801234	-0.9897436597161697	0.0	0.9261648431961785	-1.0943959567472712	0.0	1.014954221418664	-1.1030989719728028	0.0	0.9936604652169393	-1.158112228635039	0.0	0.908735399211465	-1.076711415472379	0.0	0.9909874388534413	-0.39437523192141694	0.0	1.006072546162623	-0.265948336323399	0.0	1.0050510046222394	-0.3234150771237943	0.0	0.900458271056049	-0.41443542183363646	0.0	0.7830810844527154	-0.32237393595988556	0.0	0.6837038638180682	-0.19707156508809698	0.0	1.0636403550327636	-0.4739095077061146	0.0	1.1005562023800275	-0.6254192853762482	0.0	1.0787422023034696	-0.5497276720312632	0.0
77	2.592333333333333	0.9669334869419581	-0.7054872638127383	0.0	0.9217879344208936	-0.7100932374866321	0.0	0.9177963695796083	-0.9784777628447988	0.0	0.891923319812434	-1.095256606212629	0.0	0.9726674313828821	-1.0875073773165844	0.0	0.9553943033038802	-1.1507000802556584	0.0	0.8717922456536388	-1.1000360484412808	0.0	1.0062796000053926	-0.7259069847760798	0.0	0.9748217855535913	-0.9900479776829184	0.0	0.9270646799500707	-1.0897420752082723	0.0	1.015015592513375	-1.1032268702705479	0.0	0.9908806752428245	-1.1467446358993743	0.0	0.9088408582143627	-1.0771947154060804	0.0	0.9912983988100822	-0.3945932236736842	0.0	1.005061507466614	-0.2660720566349938	0.0	1.0036740716223675	-0.3248042267720692	0.0	0.8997996624330706	-0.4156861981307789	0.0	0.7764864734118128	-0.3326020225114819	0.0	0.6649735777244851	-0.2177973448867394	0.0	1.0654128452562215	-0.472587860385794	0.0	1.1034776073627295	-0.6248299206981047	0.0	1.080492639602979	-0.5497237892425128	0.0
78	2.626	0.9682268982799055	-0.7058368320037272	0.0	0.9220587817751705	-0.7097994031156087	0.0	0.9180139880585835	-0.9770869767501732	0.0	0.8927627494899951	-1.0920045188307959	0.0	0.9727747118058414	-1.0874959506731827	0.0	0.9542865907783413	-1.1490062129336696	0.0	0.8709311337836114	-1.0992768539199036	0.0	1.007163654542749	-0.7257525069182632	0.0	0.9757979927201542	-0.9907739299194006	0.0	0.9278822445600836	-1.0869430695492532	0.0	1.0151302526573498	-1.10338808700097	0.0	0.9882264501525104	-1.1345054066269593	0.0	0.9088631737304353	-1.0784178138194627	0.0	0.9912948520580352	-0.39506468697619235	0.0	1.0037741940926275	-0.26620511387737505	0.0	1.0022282173196793	-0.3260952384469929	0.0	0.8984423448298278	-0.4172822038724419	0.0	0.7707806150022251	-0.3433610607141215	0.0	0.648904452414226	-0.23974500924686826	0.0	1.066894256698246	-0.47122906030255696	0.0	1.105719688269465	-0.624259841053772	0.0	1.081485642833427	-0.549307169651121	0.0
79	2.6596666666666664	0.9692632264487265	-0.7063191527558781	0.0	0.9223464623205799	-0.7097043541500777	0.0	0.9182638676434901	-0.9760457745379879	0.0	0.894230720122642	-1.0904112351315791	0.0	0.9728393032392456	-1.0875416391847061	0.0	0.9516976178684409	-1.1448715606694013	0.0	0.8705837128399326	-1.0985429987435829	0.0	1.0081293013961712	-0.7253774155967362	0.0	0.97651366587054	-0.9914606983691976	0.0	0.9291045839132102	-1.0857064589094203	0.0	1.0153143351361884	-1.103533246812223	0.0	0.9857835762993368	-1.1226859835343974	0.0	0.9094072016306791	-1.0801886291286837	0.0	0.9910593424809468	-0.39565750224224866	0.0	1.002230020100384	-0.2662315541437349	0.0	1.0005127796783588	-0.3270582108541274	0.0	0.8966400774557115	-0.4190403416383664	0.0	0.7658988109324582	-0.3545238305389177	0.0	0.6354314519934519	-0.2626634109546633	0.0	1.0682885720350848	-0.46995028563897295	0.0	1.1072020095654758	-0.6237449009345717	0.0	1.0816412649173652	-0.5482924249975037	0.0
80	2.6933333333333334	0.9700405829052031	-0.7067940340253607	0.0	0.9226770270392195	-0.7097307728458858	0.0	0.9186225601620841	-0.9751219296465904	0.0	0.8962452352542032	-1.0900908977744233	0.0	0.972758262675605	-1.0876958239586814	0.0	0.9472125745919129	-1.1375267257297224	0.0	0.8711529995772962	-1.0977116082621823	0.0	1.009289335503673	-0.7246828256711416	0.0	0.9773222471893267	-0.9916366246303019	0.0	0.9312677594998223	-1.085642987623171	0.0	1.015555536600429	-1.1035495634429162	0.0	0.983720034568016	-1.1122613883813968	0.0	0.9115165753228619	-1.0821488648862225	0.0	0.9906440672261727	-0.39623169057154617	0.0	1.0004967895019907	-0.2660902656269992	0.0	0.9985189105528806	-0.3276269405402689	0.0	0.8947133637217319	-0.42069104650618416	0.0	0.7616939236832942	-0.3660952668307988	0.0	0.6242508710317298	-0.286324096954797	0.0	1.0696753761213809	-0.46878617624017543	0.0	1.108111716456651	-0.623231103547197	0.0	1.0812135781323275	-0.5466919859902911	0.0
81	2.727	0.9706403112935111	-0.7071175052918653	0.0	0.923127092356327	-0.709666579570402	0.0	0.9192138615183529	-0.9741061703342817	0.0	0.8986205728030767	-1.090684014954327	0.0	0.972377403642297	-1.0880120574219858	0.0	0.9410659314589386	-1.1272061482760327	0.0	0.8729359479617014	-1.0968350744385829	0.0	1.0106050522918701	-0.7236560396939781	0.0	0.9785436507507981	-0.9908420919175404	0.0	0.934590665785812	-1.086407078664404	0.0	1.0157817364416248	-1.1032451844575122	0.0	0.982253771593557	-1.1039927305387176	0.0	0.9161527934965775	-1.084008436323016	0.0	0.9901002998651472	-0.39666037545248944	0.0	0.9987415638257179	-0.2658035449496054	0.0	0.99643673634782	-0.32791147081411226	0.0	0.8929632514563242	-0.42208227064467946	0.0	0.7580307750686844	-0.37811924171392725	0.0	0.6150351274261768	-0.3104428186093813	0.0	1.0710062460397998	-0.46767232701360734	0.0	1.108833170751106	-0.6225486332860602	0.0	1.0806241537098293	-0.5446488717990431	0.0
82	2.7606666666666664	0.9711986730654447	-0.7072196194484703	0.0	0.9237856650288122	-0.7093788712546554	0.0	0.9200840530565202	-0.9729271468317024	0.0	0.9011592930984004	-1.0918132117605255	0.0	0.9715191853426883	-1.0885141482810698	0.0	0.9345166140137827	-1.1157720165310507	0.0	0.8760934209794116	-1.0961208708389956	0.0	1.011973766696036	-0.7225044348229521	0.0	0.9802512080659723	-0.9888818157238941	0.0	0.9385966511128369	-1.087712954933741	0.0	1.0158248172357713	-1.102363231527463	0.0	0.9815491642891933	-1.0983025810860936	0.0	0.923269476718612	-1.0856255939422514	0.0	0.9894993426232447	-0.3968545313903326	0.0	0.9971282131743017	-0.26544420832679605	0.0	0.994490875064807	-0.3280673622601494	0.0	0.8916499615642665	-0.42327278569439253	0.0	0.7550362668627738	-0.3905529447745799	0.0	0.6076004063341518	-0.33477281677962467	0.0	1.0721607199995968	-0.4665110576245965	0.0	1.1096953665988571	-0.6215340676259727	0.0	1.080213372576654	-0.5424043232347743	0.0
83	2.7943333333333333	0.971791928779645	-0.7071609263108245	0.0	0.9246688748929773	-0.7089433178155313	0.0	0.9211537967629191	-0.9716550555824521	0.0	0.9036248203120288	-1.0930715820808075	0.0	0.9700655384751401	-1.0891382897584558	0.0	0.9292757392414912	-1.1058147614827818	0.0	0.8804063070073102	-1.0956983354510308	0.0	1.0133095611253031	-0.7215366088032596	0.0	0.9822038250391535	-0.9860194672893894	0.0	0.942405541799845	-1.0892375934485743	0.0	1.0153955961367682	-1.1006581340579238	0.0	0.9815597021607512	-1.0949661273288913	0.0	0.9316690560430305	-1.0868908707188165	0.0	0.9888986706242429	-0.3967984034510802	0.0	0.9956889922219151	-0.26507978018051503	0.0	0.9927867308368347	-0.32819761831727967	0.0	0.8909437895327528	-0.4244097872035699	0.0	0.7530448821374629	-0.40325022405159844	0.0	0.6019047455532055	-0.3592141102275609	0.0	1.0730410674731135	-0.4652451544533129	0.0	1.1107749055186944	-0.6202080746353281	0.0	1.080093175723539	-0.5403174747658132	0.0
84	2.828	0.9723544223077838	-0.7071791653111935	0.0	0.9257042165469695	-0.7085526046337014	0.0	0.9222860548334223	-0.9704475088401765	0.0	0.9056531430235172	-1.094067297243811	0.0	0.9680821837161824	-1.0897137359040572	0.0	0.9263164133025524	-1.098774781507603	0.0	0.8850400073238889	-1.0953866103717762	0.0	1.0145456147196927	-0.7209487733085145	0.0	0.9840322264195567	-0.9828752347772419	0.0	0.9453894742018515	-1.090501909844359	0.0	1.0141672579353598	-1.0980523067208074	0.0	0.9819422672665651	-1.0930692886472597	0.0	0.9398010142247096	-1.0876099696237103	0.0	0.9883193145109991	-0.3965475410247425	0.0	0.9943171576224904	-0.2647803098611195	0.0	0.9913012230019891	-0.3283854781177766	0.0	0.8908687978086964	-0.42552569989776107	0.0	0.7522507199269118	-0.41609156037988265	0.0	0.5978962633292314	-0.3837965553214125	0.0	1.0735785582745252	-0.4638470214190244	0.0	1.1119145562153534	-0.6188397149266226	0.0	1.080219106002162	-0.5387287450168134	0.0
85	2.8616666666666664	0.9727153178706403	-0.7076249931810553	0.0	0.9267320819930593	-0.708376729677752	0.0	0.9233665066383169	-0.9694220226993377	0.0	0.9067878497835434	-1.094525527090768	0.0	0.9658749141519021	-1.0900805799638893	0.0	0.9254820232933985	-1.0944294520088138	0.0	0.8886693695815063	-1.0948184245297747	0.0	1.0155847993859974	-0.7207997390805515	0.0	0.9854608934354895	-0.9801433654480153	0.0	0.947310873949078	-1.0909571264365134	0.0	1.0120531890021927	-1.0947897717482635	0.0	0.9821682759043395	-1.0915185353648502	0.0	0.9462855552423786	-1.087569472926677	0.0	0.9877540325776254	-0.39617081403441406	0.0	0.9928406470825202	-0.2646444096506871	0.0	0.9899038059141088	-0.328698993036185	0.0	0.8912859592842307	-0.4265069377271585	0.0	0.7524993799387789	-0.42906455770122337	0.0	0.5954424781364901	-0.4085723408554125	0.0	1.0736405844800057	-0.46230253409269606	0.0	1.1128824490014855	-0.6177348433248551	0.0	1.0805711653493926	-0.5377860232190559	0.0
86	2.8953333333333333	0.9727478713980146	-0.70868383820358	0.0	0.9275570273191345	-0.7085156451686478	0.0	0.92434467999471	-0.9685005536847023	0.0	0.9067680567513486	-1.0944117387227104	0.0	0.9638692909610703	-1.0902221862426096	0.0	0.9260112645875767	-1.0918951237503072	0.0	0.8901384166326749	-1.093780869998445	0.0	1.0163400959946947	-0.7210421597803446	0.0	0.9864078147485824	-0.9782535449040185	0.0	0.9481879692357823	-1.0903077007089548	0.0	1.0094174613210327	-1.091412087634316	0.0	0.9819007153954802	-1.0896616201523075	0.0	0.9501752719356661	-1.08675083269955	0.0	0.9871517687372068	-0.39572564526825904	0.0	0.9911117961895688	-0.2647300926059876	0.0	0.9883934112645933	-0.32913188972339885	0.0	0.8919429545168935	-0.42725154642877905	0.0	0.7534364941514279	-0.4421388352430471	0.0	0.594491604572921	-0.43349540101700584	0.0	1.0730810682432013	-0.4606697153693574	0.0	1.1134845369393416	-0.6169919998494574	0.0	1.0811943413622362	-0.53745378039944	0.0
